<?xml version="1.0" standalone="no"?>
<!DOCTYPE svg PUBLIC "-//W3C//DTD SVG 20010904//EN"
 "http://www.w3.org/TR/2001/REC-SVG-20010904/DTD/svg10.dtd">
<svg version="1.0" xmlns="http://www.w3.org/2000/svg"
 width="64.000000pt" height="64.000000pt" viewBox="0 0 64.000000 64.000000"
 preserveAspectRatio="xMidYMid meet">

<g transform="translate(0.000000,64.000000) scale(0.100000,-0.100000)"
fill="#000000" stroke="none">
<path d="M60 370 c0 -163 1 -170 20 -170 19 0 20 7 20 150 l0 150 210 0 c203
0 210 1 210 20 0 19 -7 20 -230 20 l-230 0 0 -170z"/>
<path d="M120 310 l0 -170 110 0 c103 0 110 1 110 20 0 19 -7 20 -90 20 l-90
0 0 121 0 120 91 -70 c50 -39 95 -71 99 -71 4 0 49 31 99 70 l91 69 0 -53 c0
-40 5 -57 20 -71 20 -18 20 -17 20 83 l0 102 -230 0 -230 0 0 -170z m370 125
c0 -6 -131 -105 -140 -105 -6 0 -113 80 -134 101 -6 5 45 9 132 9 78 0 142 -2
142 -5z"/>
<path d="M532 238 c-9 -9 -7 -17 10 -35 l21 -23 -91 0 c-85 0 -92 -1 -92 -20
0 -19 7 -20 92 -20 l91 0 -22 -23 c-18 -20 -19 -26 -8 -35 10 -9 23 -2 57 33
l44 45 -45 45 c-35 36 -47 43 -57 33z"/>
</g>
</svg>
