<?xml version="1.0" standalone="no"?>
<!DOCTYPE svg PUBLIC "-//W3C//DTD SVG 20010904//EN"
 "http://www.w3.org/TR/2001/REC-SVG-20010904/DTD/svg10.dtd">
<svg version="1.0" xmlns="http://www.w3.org/2000/svg"
 width="980.000000pt" height="980.000000pt" viewBox="0 0 980.000000 980.000000"
 preserveAspectRatio="xMidYMid meet">

<g transform="translate(0.000000,980.000000) scale(0.100000,-0.100000)"
fill="#000000" stroke="none">
<path d="M3347 5971 c227 -82 395 -260 455 -481 19 -70 23 -110 23 -230 -1
-169 -14 -231 -77 -360 -55 -113 -175 -234 -295 -300 -45 -25 -83 -48 -83 -52
0 -4 29 -49 64 -100 36 -51 141 -205 235 -343 94 -137 179 -260 189 -273 l17
-22 476 2 476 3 -297 890 c-164 490 -327 977 -364 1084 -36 107 -66 196 -66
198 0 2 -181 3 -402 3 l-403 -1 52 -18z"/>
<path d="M4784 5973 c38 -125 123 -407 143 -473 13 -47 50 -170 82 -275 32
-104 77 -256 102 -337 l44 -147 43 127 c23 70 115 345 204 612 88 267 163 491
165 498 4 9 -78 12 -392 12 -373 0 -396 -1 -391 -17z"/>
<path d="M6369 5370 c113 -341 208 -616 212 -612 3 4 18 45 32 92 14 47 57
191 96 320 200 664 241 803 241 811 0 5 -172 9 -393 9 l-393 0 205 -620z"/>
<path d="M2440 5221 l0 -271 235 0 c300 0 367 14 443 91 49 51 66 94 66 180 0
126 -46 194 -166 242 -48 19 -76 22 -315 25 l-263 4 0 -271z"/>
<path d="M7124 4505 l-231 -695 234 0 233 0 0 695 c0 382 -1 695 -3 695 -1 0
-106 -313 -233 -695z"/>
<path d="M5777 4812 c-43 -125 -94 -270 -112 -322 -62 -176 -113 -324 -169
-485 -30 -88 -58 -168 -61 -177 -7 -17 17 -18 424 -18 237 0 431 2 431 3 0 4
-83 244 -190 547 -159 453 -230 661 -230 670 0 39 -25 -20 -93 -218z"/>
<path d="M2440 4130 l0 -320 346 0 c273 0 344 3 338 13 -12 19 -278 420 -352
530 l-66 97 -133 0 -133 0 0 -320z"/>
</g>
</svg>
